<svg xmlns="http://www.w3.org/2000/svg" xmlns:xlink="http://www.w3.org/1999/xlink" width="940" zoomAndPan="magnify" viewBox="0 0 705 132.749998" height="177" preserveAspectRatio="xMidYMid meet" version="1.0"><defs><g/><clipPath id="efd53f5386"><rect x="0" width="7" y="0" height="4"/></clipPath><clipPath id="d49d8f4ea0"><path d="M 1 0 L 704 0 L 704 132.5 L 1 132.5 Z M 1 0 " clip-rule="nonzero"/></clipPath></defs><g transform="matrix(1, 0, 0, 1, 141, 12)"><g clip-path="url(#efd53f5386)"><g fill="#000000" fill-opacity="1"><g transform="translate(1.028139, 2.880314)"><g><path d="M 0.25 0 L 0.21875 0 L 0.203125 -0.015625 L 0.203125 -0.09375 L 0.21875 -0.125 L 0.21875 -0.171875 L 0.234375 -0.1875 L 0.234375 -0.28125 L 0.25 -0.328125 L 0.25 -0.375 L 0.265625 -0.390625 L 0.265625 -0.453125 L 0.28125 -0.46875 L 0.28125 -0.546875 L 0.296875 -0.5625 L 0.296875 -0.59375 L 0.3125 -0.625 L 0.3125 -0.671875 L 0.328125 -0.6875 L 0.328125 -0.765625 L 0.34375 -0.78125 L 0.34375 -0.84375 L 0.359375 -0.859375 L 0.359375 -0.921875 L 0.375 -0.9375 L 0.375 -1.015625 L 0.390625 -1.046875 L 0.390625 -1.125 L 0.171875 -1.125 L 0.171875 -1.171875 L 0.1875 -1.1875 L 0.1875 -1.203125 L 0.171875 -1.21875 L 0.1875 -1.25 L 0.1875 -1.28125 L 0.203125 -1.3125 L 0.203125 -1.359375 L 0.21875 -1.390625 L 0.234375 -1.40625 L 0.921875 -1.40625 L 0.9375 -1.390625 L 0.9375 -1.3125 L 0.921875 -1.296875 L 0.921875 -1.234375 L 0.90625 -1.21875 L 0.90625 -1.140625 L 0.890625 -1.125 L 0.6875 -1.125 L 0.6875 -1.078125 L 0.671875 -1.0625 L 0.671875 -1.015625 L 0.65625 -0.984375 L 0.65625 -0.9375 L 0.640625 -0.90625 L 0.640625 -0.84375 L 0.625 -0.8125 L 0.625 -0.78125 L 0.609375 -0.75 L 0.609375 -0.6875 L 0.59375 -0.671875 L 0.59375 -0.609375 L 0.578125 -0.578125 L 0.578125 -0.546875 L 0.5625 -0.53125 L 0.5625 -0.46875 L 0.546875 -0.453125 L 0.546875 -0.34375 L 0.53125 -0.3125 L 0.53125 -0.28125 L 0.515625 -0.234375 L 0.515625 -0.21875 L 0.5 -0.1875 L 0.5 -0.140625 L 0.484375 -0.078125 L 0.484375 -0.046875 L 0.46875 -0.015625 L 0.453125 0 Z M 0.25 0 "/></g></g></g><g fill="#000000" fill-opacity="1"><g transform="translate(1.80668, 2.880314)"><g><path d="M 0.328125 -1.484375 L 0.3125 -1.5 L 0.265625 -1.5 L 0.265625 -1.515625 L 0.296875 -1.546875 L 0.296875 -1.5625 L 0.328125 -1.59375 L 0.359375 -1.609375 L 0.359375 -1.625 L 0.4375 -1.703125 L 0.46875 -1.75 L 0.484375 -1.765625 L 0.734375 -1.765625 L 0.734375 -1.734375 L 0.6875 -1.6875 L 0.65625 -1.671875 L 0.65625 -1.65625 L 0.625 -1.640625 L 0.609375 -1.609375 L 0.578125 -1.59375 L 0.5625 -1.578125 L 0.53125 -1.5625 L 0.453125 -1.484375 L 0.40625 -1.484375 L 0.359375 -1.5 Z M 0.28125 0 L 0.078125 0 L 0.0625 -0.015625 L 0.0625 -0.078125 L 0.078125 -0.109375 L 0.078125 -0.171875 L 0.09375 -0.203125 L 0.09375 -0.234375 L 0.109375 -0.265625 L 0.109375 -0.34375 L 0.125 -0.359375 L 0.125 -0.421875 L 0.140625 -0.4375 L 0.140625 -0.484375 L 0.15625 -0.53125 L 0.15625 -0.59375 L 0.171875 -0.609375 L 0.171875 -0.703125 L 0.1875 -0.734375 L 0.1875 -0.796875 L 0.203125 -0.828125 L 0.203125 -0.859375 L 0.21875 -0.890625 L 0.21875 -0.96875 L 0.234375 -0.984375 L 0.21875 -0.984375 L 0.234375 -1.015625 L 0.234375 -1.046875 L 0.25 -1.0625 L 0.25 -1.15625 L 0.265625 -1.15625 L 0.265625 -1.21875 L 0.28125 -1.234375 L 0.28125 -1.3125 L 0.296875 -1.34375 L 0.296875 -1.359375 L 0.328125 -1.390625 L 0.359375 -1.390625 L 0.375 -1.40625 L 0.40625 -1.390625 L 0.421875 -1.390625 L 0.4375 -1.40625 L 0.5625 -1.40625 L 0.59375 -1.375 L 0.59375 -1.328125 L 0.578125 -1.3125 L 0.59375 -1.296875 L 0.578125 -1.296875 L 0.578125 -1.265625 L 0.5625 -1.234375 L 0.5625 -1.15625 L 0.546875 -1.109375 L 0.546875 -1.078125 L 0.53125 -1.046875 L 0.53125 -0.96875 L 0.515625 -0.953125 L 0.515625 -0.90625 L 0.5 -0.890625 L 0.5 -0.8125 L 0.484375 -0.78125 L 0.484375 -0.765625 L 0.46875 -0.703125 L 0.46875 -0.640625 L 0.453125 -0.609375 L 0.453125 -0.5625 L 0.4375 -0.53125 L 0.4375 -0.484375 L 0.421875 -0.453125 L 0.421875 -0.375 L 0.40625 -0.34375 L 0.40625 -0.28125 L 0.390625 -0.25 L 0.390625 -0.1875 L 0.375 -0.15625 L 0.375 -0.09375 L 0.359375 -0.0625 L 0.359375 -0.015625 L 0.34375 0 Z M 0.28125 0 "/></g></g></g><g fill="#000000" fill-opacity="1"><g transform="translate(2.331695, 2.880314)"><g><path d="M 0.25 0 L 0.21875 0 L 0.203125 -0.015625 L 0.203125 -0.09375 L 0.21875 -0.125 L 0.21875 -0.171875 L 0.234375 -0.1875 L 0.234375 -0.28125 L 0.25 -0.328125 L 0.25 -0.375 L 0.265625 -0.390625 L 0.265625 -0.453125 L 0.28125 -0.46875 L 0.28125 -0.546875 L 0.296875 -0.5625 L 0.296875 -0.59375 L 0.3125 -0.625 L 0.3125 -0.671875 L 0.328125 -0.6875 L 0.328125 -0.765625 L 0.34375 -0.78125 L 0.34375 -0.84375 L 0.359375 -0.859375 L 0.359375 -0.921875 L 0.375 -0.9375 L 0.375 -1.015625 L 0.390625 -1.046875 L 0.390625 -1.125 L 0.171875 -1.125 L 0.171875 -1.171875 L 0.1875 -1.1875 L 0.1875 -1.203125 L 0.171875 -1.21875 L 0.1875 -1.25 L 0.1875 -1.28125 L 0.203125 -1.3125 L 0.203125 -1.359375 L 0.21875 -1.390625 L 0.234375 -1.40625 L 0.921875 -1.40625 L 0.9375 -1.390625 L 0.9375 -1.3125 L 0.921875 -1.296875 L 0.921875 -1.234375 L 0.90625 -1.21875 L 0.90625 -1.140625 L 0.890625 -1.125 L 0.6875 -1.125 L 0.6875 -1.078125 L 0.671875 -1.0625 L 0.671875 -1.015625 L 0.65625 -0.984375 L 0.65625 -0.9375 L 0.640625 -0.90625 L 0.640625 -0.84375 L 0.625 -0.8125 L 0.625 -0.78125 L 0.609375 -0.75 L 0.609375 -0.6875 L 0.59375 -0.671875 L 0.59375 -0.609375 L 0.578125 -0.578125 L 0.578125 -0.546875 L 0.5625 -0.53125 L 0.5625 -0.46875 L 0.546875 -0.453125 L 0.546875 -0.34375 L 0.53125 -0.3125 L 0.53125 -0.28125 L 0.515625 -0.234375 L 0.515625 -0.21875 L 0.5 -0.1875 L 0.5 -0.140625 L 0.484375 -0.078125 L 0.484375 -0.046875 L 0.46875 -0.015625 L 0.453125 0 Z M 0.25 0 "/></g></g></g><g fill="#000000" fill-opacity="1"><g transform="translate(3.110236, 2.880314)"><g><path d="M 0.4375 0.015625 L 0.359375 0 L 0.328125 0 L 0.296875 -0.015625 L 0.28125 -0.03125 L 0.265625 -0.03125 L 0.234375 -0.046875 L 0.203125 -0.078125 L 0.203125 -0.09375 L 0.1875 -0.09375 L 0.171875 -0.109375 L 0.171875 -0.125 L 0.140625 -0.1875 L 0.140625 -0.234375 L 0.125 -0.3125 L 0.125 -0.390625 L 0.140625 -0.40625 L 0.140625 -0.515625 L 0.15625 -0.546875 L 0.15625 -0.625 L 0.171875 -0.640625 L 0.171875 -0.71875 L 0.1875 -0.734375 L 0.1875 -0.8125 L 0.203125 -0.828125 L 0.203125 -0.90625 L 0.21875 -0.921875 L 0.21875 -0.984375 L 0.234375 -1.015625 L 0.234375 -1.078125 L 0.25 -1.09375 L 0.25 -1.15625 L 0.265625 -1.1875 L 0.265625 -1.265625 L 0.28125 -1.296875 L 0.28125 -1.3125 L 0.296875 -1.34375 L 0.296875 -1.390625 L 0.359375 -1.390625 L 0.375 -1.40625 L 0.453125 -1.390625 L 0.515625 -1.40625 L 0.53125 -1.40625 L 0.5625 -1.390625 L 0.578125 -1.390625 L 0.578125 -1.3125 L 0.5625 -1.296875 L 0.578125 -1.265625 L 0.5625 -1.265625 L 0.5625 -1.203125 L 0.546875 -1.203125 L 0.546875 -1.09375 L 0.53125 -1.078125 L 0.53125 -1.046875 L 0.515625 -1.015625 L 0.515625 -0.953125 L 0.5 -0.9375 L 0.5 -0.890625 L 0.484375 -0.859375 L 0.484375 -0.765625 L 0.46875 -0.765625 L 0.46875 -0.703125 L 0.453125 -0.671875 L 0.453125 -0.640625 L 0.4375 -0.578125 L 0.4375 -0.484375 L 0.421875 -0.4375 L 0.421875 -0.3125 L 0.4375 -0.28125 L 0.46875 -0.28125 L 0.515625 -0.265625 L 0.578125 -0.296875 L 0.59375 -0.3125 L 0.59375 -0.328125 L 0.609375 -0.359375 L 0.609375 -0.375 L 0.625 -0.390625 L 0.625 -0.40625 L 0.640625 -0.4375 L 0.640625 -0.5 L 0.65625 -0.515625 L 0.65625 -0.578125 L 0.671875 -0.59375 L 0.671875 -0.640625 L 0.6875 -0.6875 L 0.6875 -0.71875 L 0.703125 -0.75 L 0.703125 -0.8125 L 0.71875 -0.84375 L 0.71875 -0.875 L 0.734375 -0.90625 L 0.734375 -0.984375 L 0.75 -1.015625 L 0.75 -1.078125 L 0.765625 -1.109375 L 0.765625 -1.171875 L 0.78125 -1.203125 L 0.78125 -1.28125 L 0.796875 -1.28125 L 0.796875 -1.34375 L 0.8125 -1.375 L 0.8125 -1.390625 L 0.875 -1.40625 L 0.890625 -1.40625 L 0.90625 -1.390625 L 0.96875 -1.40625 L 0.984375 -1.390625 L 1 -1.390625 L 1.015625 -1.40625 L 1.046875 -1.390625 L 1.046875 -1.40625 L 1.09375 -1.40625 L 1.109375 -1.390625 L 1.109375 -1.359375 L 1.09375 -1.328125 L 1.09375 -1.28125 L 1.078125 -1.25 L 1.078125 -1.1875 L 1.0625 -1.171875 L 1.0625 -1.125 L 1.046875 -1.109375 L 1.046875 -1.046875 L 1.03125 -1.03125 L 1.03125 -0.96875 L 1.015625 -0.96875 L 1.015625 -0.921875 L 1 -0.875 L 1 -0.84375 L 0.984375 -0.8125 L 0.984375 -0.734375 L 0.96875 -0.71875 L 0.96875 -0.625 L 0.953125 -0.609375 L 0.953125 -0.578125 L 0.9375 -0.546875 L 0.9375 -0.5 L 0.921875 -0.484375 L 0.921875 -0.421875 L 0.90625 -0.40625 L 0.90625 -0.34375 L 0.890625 -0.328125 L 0.890625 -0.296875 L 0.875 -0.265625 L 0.875 -0.25 L 0.859375 -0.21875 L 0.84375 -0.203125 L 0.84375 -0.1875 L 0.828125 -0.15625 L 0.8125 -0.140625 L 0.8125 -0.125 L 0.796875 -0.109375 L 0.796875 -0.09375 L 0.765625 -0.078125 L 0.734375 -0.046875 L 0.71875 -0.046875 L 0.703125 -0.03125 L 0.6875 -0.03125 L 0.65625 -0.015625 L 0.640625 -0.015625 L 0.625 0 L 0.59375 0 L 0.546875 0.015625 Z M 0.4375 0.015625 "/></g></g></g><g fill="#000000" fill-opacity="1"><g transform="translate(4.124334, 2.880314)"><g><path d="M 0.09375 0 L 0.078125 -0.015625 L 0.0625 -0.015625 L 0.0625 -0.078125 L 0.078125 -0.09375 L 0.078125 -0.125 L 0.09375 -0.15625 L 0.09375 -0.234375 L 0.109375 -0.265625 L 0.109375 -0.328125 L 0.125 -0.34375 L 0.125 -0.390625 L 0.140625 -0.40625 L 0.140625 -0.515625 L 0.15625 -0.53125 L 0.15625 -0.578125 L 0.171875 -0.609375 L 0.171875 -0.671875 L 0.1875 -0.6875 L 0.1875 -0.703125 L 0.203125 -0.765625 L 0.203125 -0.8125 L 0.21875 -0.84375 L 0.21875 -0.921875 L 0.234375 -0.9375 L 0.234375 -1.015625 L 0.25 -1.046875 L 0.25 -1.125 L 0.265625 -1.140625 L 0.265625 -1.1875 L 0.28125 -1.203125 L 0.28125 -1.265625 L 0.296875 -1.296875 L 0.296875 -1.34375 L 0.3125 -1.390625 L 0.34375 -1.40625 L 0.390625 -1.40625 L 0.46875 -1.390625 L 0.59375 -1.390625 L 0.59375 -1.34375 L 0.578125 -1.296875 L 0.578125 -1.265625 L 0.5625 -1.234375 L 0.5625 -1.1875 L 0.546875 -1.109375 L 0.53125 -1.09375 L 0.53125 -1.015625 L 0.515625 -1 L 0.515625 -0.9375 L 0.5 -0.90625 L 0.5 -0.890625 L 0.484375 -0.875 L 0.5 -0.859375 L 0.484375 -0.84375 L 0.484375 -0.75 L 0.46875 -0.734375 L 0.46875 -0.6875 L 0.453125 -0.65625 L 0.453125 -0.5625 L 0.4375 -0.53125 L 0.4375 -0.46875 L 0.421875 -0.453125 L 0.421875 -0.359375 L 0.40625 -0.34375 L 0.40625 -0.28125 L 0.4375 -0.28125 L 0.453125 -0.265625 L 0.5625 -0.265625 L 0.609375 -0.28125 L 0.65625 -0.28125 L 0.671875 -0.265625 L 0.65625 -0.234375 L 0.65625 -0.1875 L 0.640625 -0.125 L 0.640625 -0.046875 L 0.625 -0.015625 L 0.578125 -0.015625 L 0.546875 0 Z M 0.09375 0 "/></g></g></g><g fill="#000000" fill-opacity="1"><g transform="translate(4.805057, 2.880314)"><g><path d="M 0.484375 0.03125 L 0.375 0.03125 L 0.328125 0.015625 L 0.3125 0.015625 L 0.28125 0 L 0.265625 -0.015625 L 0.234375 -0.03125 L 0.15625 -0.109375 L 0.15625 -0.125 L 0.125 -0.15625 L 0.125 -0.203125 L 0.109375 -0.203125 L 0.109375 -0.28125 L 0.09375 -0.328125 L 0.09375 -0.375 L 0.109375 -0.390625 L 0.109375 -0.515625 L 0.125 -0.546875 L 0.125 -0.640625 L 0.140625 -0.671875 L 0.140625 -0.71875 L 0.15625 -0.75 L 0.15625 -0.828125 L 0.171875 -0.84375 L 0.171875 -0.890625 L 0.1875 -0.90625 L 0.1875 -0.96875 L 0.203125 -1.015625 L 0.21875 -1.03125 L 0.21875 -1.046875 L 0.234375 -1.078125 L 0.234375 -1.125 L 0.25 -1.140625 L 0.265625 -1.171875 L 0.265625 -1.1875 L 0.296875 -1.203125 L 0.296875 -1.234375 L 0.3125 -1.265625 L 0.40625 -1.359375 L 0.421875 -1.359375 L 0.4375 -1.375 L 0.46875 -1.390625 L 0.484375 -1.390625 L 0.515625 -1.40625 L 0.53125 -1.40625 L 0.5625 -1.421875 L 0.765625 -1.421875 L 0.78125 -1.40625 L 0.8125 -1.40625 L 0.875 -1.375 L 0.921875 -1.328125 L 0.953125 -1.3125 L 0.953125 -1.296875 L 0.96875 -1.28125 L 0.984375 -1.25 L 0.984375 -1.21875 L 1 -1.1875 L 1 -0.9375 L 0.984375 -0.921875 L 0.984375 -0.78125 L 0.96875 -0.765625 L 0.96875 -0.71875 L 0.953125 -0.6875 L 0.953125 -0.609375 L 0.9375 -0.609375 L 0.9375 -0.53125 L 0.921875 -0.5 L 0.90625 -0.421875 L 0.90625 -0.40625 L 0.890625 -0.390625 L 0.890625 -0.359375 L 0.875 -0.328125 L 0.875 -0.296875 L 0.84375 -0.234375 L 0.84375 -0.203125 L 0.8125 -0.171875 L 0.8125 -0.15625 L 0.78125 -0.125 L 0.78125 -0.109375 L 0.703125 -0.03125 L 0.671875 -0.015625 L 0.625 0 L 0.609375 0.015625 L 0.546875 0.015625 L 0.53125 0.03125 Z M 0.46875 -0.234375 L 0.5 -0.234375 L 0.515625 -0.25 L 0.546875 -0.25 L 0.5625 -0.28125 L 0.578125 -0.296875 L 0.59375 -0.328125 L 0.59375 -0.359375 L 0.609375 -0.390625 L 0.609375 -0.4375 L 0.625 -0.453125 L 0.625 -0.515625 L 0.640625 -0.53125 L 0.640625 -0.59375 L 0.65625 -0.609375 L 0.65625 -0.6875 L 0.671875 -0.703125 L 0.671875 -0.78125 L 0.6875 -0.8125 L 0.6875 -0.90625 L 0.703125 -0.921875 L 0.703125 -0.984375 L 0.71875 -1.03125 L 0.71875 -1.078125 L 0.703125 -1.125 L 0.703125 -1.140625 L 0.6875 -1.15625 L 0.65625 -1.171875 L 0.625 -1.15625 L 0.609375 -1.15625 L 0.5625 -1.140625 L 0.53125 -1.109375 L 0.53125 -1.078125 L 0.515625 -1.0625 L 0.515625 -1.046875 L 0.5 -1.03125 L 0.5 -1.015625 L 0.484375 -0.96875 L 0.484375 -0.90625 L 0.46875 -0.890625 L 0.46875 -0.859375 L 0.453125 -0.828125 L 0.453125 -0.765625 L 0.4375 -0.75 L 0.4375 -0.703125 L 0.421875 -0.671875 L 0.421875 -0.625 L 0.40625 -0.59375 L 0.40625 -0.484375 L 0.390625 -0.453125 L 0.390625 -0.28125 L 0.40625 -0.28125 L 0.40625 -0.265625 L 0.421875 -0.25 L 0.4375 -0.25 L 0.453125 -0.234375 Z M 0.46875 -0.234375 "/></g></g></g></g></g><g clip-path="url(#d49d8f4ea0)"><path fill="#8f6fbb" d="M 671.097656 -0.00390625 L 35.558594 -0.00390625 L 1.132812 67.601562 L 35.558594 132.226562 L 671.097656 132.226562 L 703.847656 60.714844 Z M 671.097656 -0.00390625 " fill-opacity="1" fill-rule="evenodd"/></g><path fill="#ffffff" d="M 488.683594 123.421875 L 492.929688 123.421875 C 494.097656 123.421875 495.050781 122.53125 495.050781 121.4375 C 495.050781 120.34375 494.097656 119.457031 492.929688 119.457031 L 488.683594 119.457031 C 487.515625 119.457031 486.5625 120.34375 486.5625 121.4375 C 486.5625 122.53125 487.515625 123.421875 488.683594 123.421875 Z M 514.144531 123.421875 L 518.386719 123.421875 C 519.558594 123.421875 520.511719 122.53125 520.511719 121.4375 C 520.511719 120.34375 519.558594 119.457031 518.386719 119.457031 L 514.144531 119.457031 C 512.972656 119.457031 512.023438 120.34375 512.023438 121.4375 C 512.023438 122.53125 512.972656 123.421875 514.144531 123.421875 Z M 501.414062 123.421875 L 505.660156 123.421875 C 506.828125 123.421875 507.78125 122.53125 507.78125 121.4375 C 507.78125 120.34375 506.828125 119.457031 505.660156 119.457031 L 501.414062 119.457031 C 500.246094 119.457031 499.292969 120.34375 499.292969 121.4375 C 499.292969 122.53125 500.246094 123.421875 501.414062 123.421875 Z M 475.957031 123.421875 L 480.199219 123.421875 C 481.371094 123.421875 482.320312 122.53125 482.320312 121.4375 C 482.320312 120.34375 481.371094 119.457031 480.199219 119.457031 L 475.957031 119.457031 C 474.785156 119.457031 473.835938 120.34375 473.835938 121.4375 C 473.835938 122.53125 474.785156 123.421875 475.957031 123.421875 Z M 590.523438 123.421875 L 594.765625 123.421875 C 595.9375 123.421875 596.886719 122.53125 596.886719 121.4375 C 596.886719 120.34375 595.9375 119.457031 594.765625 119.457031 L 590.523438 119.457031 C 589.351562 119.457031 588.402344 120.34375 588.402344 121.4375 C 588.402344 122.53125 589.351562 123.421875 590.523438 123.421875 Z M 577.792969 123.421875 L 582.035156 123.421875 C 583.207031 123.421875 584.15625 122.53125 584.15625 121.4375 C 584.15625 120.34375 583.207031 119.457031 582.035156 119.457031 L 577.792969 119.457031 C 576.621094 119.457031 575.671875 120.34375 575.671875 121.4375 C 575.671875 122.53125 576.621094 123.421875 577.792969 123.421875 Z M 565.0625 123.421875 L 569.304688 123.421875 C 570.476562 123.421875 571.429688 122.53125 571.429688 121.4375 C 571.429688 120.34375 570.476562 119.457031 569.304688 119.457031 L 565.0625 119.457031 C 563.890625 119.457031 562.941406 120.34375 562.941406 121.4375 C 562.941406 122.53125 563.890625 123.421875 565.0625 123.421875 Z M 412.304688 123.421875 L 416.550781 123.421875 C 417.722656 123.421875 418.671875 122.53125 418.671875 121.4375 C 418.671875 120.34375 417.722656 119.457031 416.550781 119.457031 L 412.304688 119.457031 C 411.136719 119.457031 410.183594 120.34375 410.183594 121.4375 C 410.183594 122.53125 411.136719 123.421875 412.304688 123.421875 Z M 425.035156 123.421875 L 429.28125 123.421875 C 430.449219 123.421875 431.402344 122.53125 431.402344 121.4375 C 431.402344 120.34375 430.449219 119.457031 429.28125 119.457031 L 425.035156 119.457031 C 423.867188 119.457031 422.914062 120.34375 422.914062 121.4375 C 422.914062 122.53125 423.867188 123.421875 425.035156 123.421875 Z M 463.226562 123.421875 L 467.46875 123.421875 C 468.640625 123.421875 469.589844 122.53125 469.589844 121.4375 C 469.589844 120.34375 468.640625 119.457031 467.46875 119.457031 L 463.226562 119.457031 C 462.054688 119.457031 461.105469 120.34375 461.105469 121.4375 C 461.105469 122.53125 462.054688 123.421875 463.226562 123.421875 Z M 552.332031 123.421875 L 556.578125 123.421875 C 557.75 123.421875 558.699219 122.53125 558.699219 121.4375 C 558.699219 120.34375 557.75 119.457031 556.578125 119.457031 L 552.332031 119.457031 C 551.164062 119.457031 550.210938 120.34375 550.210938 121.4375 C 550.210938 122.53125 551.164062 123.421875 552.332031 123.421875 Z M 526.875 123.421875 L 531.117188 123.421875 C 532.289062 123.421875 533.238281 122.53125 533.238281 121.4375 C 533.238281 120.34375 532.289062 119.457031 531.117188 119.457031 L 526.875 119.457031 C 525.703125 119.457031 524.753906 120.34375 524.753906 121.4375 C 524.753906 122.53125 525.703125 123.421875 526.875 123.421875 Z M 157.714844 123.421875 L 161.957031 123.421875 C 163.128906 123.421875 164.078125 122.53125 164.078125 121.4375 C 164.078125 120.34375 163.128906 119.457031 161.957031 119.457031 L 157.714844 119.457031 C 156.542969 119.457031 155.59375 120.34375 155.59375 121.4375 C 155.59375 122.53125 156.542969 123.421875 157.714844 123.421875 Z M 399.578125 123.421875 L 403.820312 123.421875 C 404.992188 123.421875 405.945312 122.53125 405.945312 121.4375 C 405.945312 120.34375 404.992188 119.457031 403.820312 119.457031 L 399.578125 119.457031 C 398.40625 119.457031 397.457031 120.34375 397.457031 121.4375 C 397.457031 122.53125 398.40625 123.421875 399.578125 123.421875 Z M 437.769531 123.421875 L 442.011719 123.421875 C 443.183594 123.421875 444.132812 122.53125 444.132812 121.4375 C 444.132812 120.34375 443.183594 119.457031 442.011719 119.457031 L 437.769531 119.457031 C 436.597656 119.457031 435.644531 120.34375 435.644531 121.4375 C 435.644531 122.53125 436.597656 123.421875 437.769531 123.421875 Z M 450.496094 123.421875 L 454.742188 123.421875 C 455.910156 123.421875 456.863281 122.53125 456.863281 121.4375 C 456.863281 120.34375 455.910156 119.457031 454.742188 119.457031 L 450.496094 119.457031 C 449.328125 119.457031 448.375 120.34375 448.375 121.4375 C 448.375 122.53125 449.328125 123.421875 450.496094 123.421875 Z M 603.253906 123.421875 L 607.496094 123.421875 C 608.667969 123.421875 609.617188 122.53125 609.617188 121.4375 C 609.617188 120.34375 608.667969 119.457031 607.496094 119.457031 L 603.253906 119.457031 C 602.082031 119.457031 601.132812 120.34375 601.132812 121.4375 C 601.132812 122.53125 602.082031 123.421875 603.253906 123.421875 Z M 539.605469 123.421875 L 543.847656 123.421875 C 545.019531 123.421875 545.96875 122.53125 545.96875 121.4375 C 545.96875 120.34375 545.019531 119.457031 543.847656 119.457031 L 539.605469 119.457031 C 538.433594 119.457031 537.484375 120.34375 537.484375 121.4375 C 537.484375 122.53125 538.433594 123.421875 539.605469 123.421875 Z M 144.984375 123.421875 L 149.226562 123.421875 C 150.398438 123.421875 151.351562 122.53125 151.351562 121.4375 C 151.351562 120.34375 150.398438 119.457031 149.226562 119.457031 L 144.984375 119.457031 C 143.8125 119.457031 142.863281 120.34375 142.863281 121.4375 C 142.863281 122.53125 143.8125 123.421875 144.984375 123.421875 Z M 106.796875 123.421875 L 111.039062 123.421875 C 112.210938 123.421875 113.160156 122.53125 113.160156 121.4375 C 113.160156 120.34375 112.210938 119.457031 111.039062 119.457031 L 106.796875 119.457031 C 105.625 119.457031 104.675781 120.34375 104.675781 121.4375 C 104.675781 122.53125 105.625 123.421875 106.796875 123.421875 Z M 94.066406 123.421875 L 98.308594 123.421875 C 99.480469 123.421875 100.429688 122.53125 100.429688 121.4375 C 100.429688 120.34375 99.480469 119.457031 98.308594 119.457031 L 94.066406 119.457031 C 92.894531 119.457031 91.945312 120.34375 91.945312 121.4375 C 91.945312 122.53125 92.894531 123.421875 94.066406 123.421875 Z M 170.445312 123.421875 L 174.6875 123.421875 C 175.859375 123.421875 176.808594 122.53125 176.808594 121.4375 C 176.808594 120.34375 175.859375 119.457031 174.6875 119.457031 L 170.445312 119.457031 C 169.273438 119.457031 168.324219 120.34375 168.324219 121.4375 C 168.324219 122.53125 169.273438 123.421875 170.445312 123.421875 Z M 615.984375 123.421875 L 620.226562 123.421875 C 621.398438 123.421875 622.351562 122.53125 622.351562 121.4375 C 622.351562 120.34375 621.398438 119.457031 620.226562 119.457031 L 615.984375 119.457031 C 614.8125 119.457031 613.863281 120.34375 613.863281 121.4375 C 613.863281 122.53125 614.8125 123.421875 615.984375 123.421875 Z M 361.390625 123.421875 L 365.636719 123.421875 C 366.804688 123.421875 367.757812 122.53125 367.757812 121.4375 C 367.757812 120.34375 366.804688 119.457031 365.636719 119.457031 L 361.390625 119.457031 C 360.222656 119.457031 359.269531 120.34375 359.269531 121.4375 C 359.269531 122.53125 360.222656 123.421875 361.390625 123.421875 Z M 208.636719 123.421875 L 212.878906 123.421875 C 214.050781 123.421875 215 122.53125 215 121.4375 C 215 120.34375 214.050781 119.457031 212.878906 119.457031 L 208.636719 119.457031 C 207.464844 119.457031 206.515625 120.34375 206.515625 121.4375 C 206.515625 122.53125 207.464844 123.421875 208.636719 123.421875 Z M 119.527344 123.421875 L 123.769531 123.421875 C 124.941406 123.421875 125.890625 122.53125 125.890625 121.4375 C 125.890625 120.34375 124.941406 119.457031 123.769531 119.457031 L 119.527344 119.457031 C 118.355469 119.457031 117.40625 120.34375 117.40625 121.4375 C 117.40625 122.53125 118.355469 123.421875 119.527344 123.421875 Z M 386.851562 123.421875 L 391.09375 123.421875 C 392.265625 123.421875 393.214844 122.53125 393.214844 121.4375 C 393.214844 120.34375 392.265625 119.457031 391.09375 119.457031 L 386.851562 119.457031 C 385.679688 119.457031 384.730469 120.34375 384.730469 121.4375 C 384.730469 122.53125 385.679688 123.421875 386.851562 123.421875 Z M 374.121094 123.421875 L 378.363281 123.421875 C 379.535156 123.421875 380.488281 122.53125 380.488281 121.4375 C 380.488281 120.34375 379.535156 119.457031 378.363281 119.457031 L 374.121094 119.457031 C 372.949219 119.457031 372 120.34375 372 121.4375 C 372 122.53125 372.949219 123.421875 374.121094 123.421875 Z M 348.664062 123.421875 L 352.90625 123.421875 C 354.078125 123.421875 355.027344 122.53125 355.027344 121.4375 C 355.027344 120.34375 354.078125 119.457031 352.90625 119.457031 L 348.664062 119.457031 C 347.492188 119.457031 346.542969 120.34375 346.542969 121.4375 C 346.542969 122.53125 347.492188 123.421875 348.664062 123.421875 Z M 183.175781 123.421875 L 187.421875 123.421875 C 188.589844 123.421875 189.542969 122.53125 189.542969 121.4375 C 189.542969 120.34375 188.589844 119.457031 187.421875 119.457031 L 183.175781 119.457031 C 182.003906 119.457031 181.054688 120.34375 181.054688 121.4375 C 181.054688 122.53125 182.003906 123.421875 183.175781 123.421875 Z M 221.367188 123.421875 L 225.609375 123.421875 C 226.78125 123.421875 227.730469 122.53125 227.730469 121.4375 C 227.730469 120.34375 226.78125 119.457031 225.609375 119.457031 L 221.367188 119.457031 C 220.195312 119.457031 219.246094 120.34375 219.246094 121.4375 C 219.246094 122.53125 220.195312 123.421875 221.367188 123.421875 Z M 246.824219 123.421875 L 251.070312 123.421875 C 252.238281 123.421875 253.191406 122.53125 253.191406 121.4375 C 253.191406 120.34375 252.238281 119.457031 251.070312 119.457031 L 246.824219 119.457031 C 245.65625 119.457031 244.703125 120.34375 244.703125 121.4375 C 244.703125 122.53125 245.65625 123.421875 246.824219 123.421875 Z M 234.097656 123.421875 L 238.339844 123.421875 C 239.511719 123.421875 240.460938 122.53125 240.460938 121.4375 C 240.460938 120.34375 239.511719 119.457031 238.339844 119.457031 L 234.097656 119.457031 C 232.925781 119.457031 231.972656 120.34375 231.972656 121.4375 C 231.972656 122.53125 232.925781 123.421875 234.097656 123.421875 Z M 654.175781 123.421875 L 658.417969 123.421875 C 659.589844 123.421875 660.539062 122.53125 660.539062 121.4375 C 660.539062 120.34375 659.589844 119.457031 658.417969 119.457031 L 654.175781 119.457031 C 653.003906 119.457031 652.054688 120.34375 652.054688 121.4375 C 652.054688 122.53125 653.003906 123.421875 654.175781 123.421875 Z M 132.257812 123.421875 L 136.5 123.421875 C 137.671875 123.421875 138.625 122.53125 138.625 121.4375 C 138.625 120.34375 137.671875 119.457031 136.5 119.457031 L 132.257812 119.457031 C 131.085938 119.457031 130.136719 120.34375 130.136719 121.4375 C 130.136719 122.53125 131.085938 123.421875 132.257812 123.421875 Z M 81.339844 123.421875 L 85.582031 123.421875 C 86.753906 123.421875 87.703125 122.53125 87.703125 121.4375 C 87.703125 120.34375 86.753906 119.457031 85.582031 119.457031 L 81.339844 119.457031 C 80.167969 119.457031 79.21875 120.34375 79.21875 121.4375 C 79.21875 122.53125 80.167969 123.421875 81.339844 123.421875 Z M 68.609375 123.421875 L 72.851562 123.421875 C 74.023438 123.421875 74.976562 122.53125 74.976562 121.4375 C 74.976562 120.34375 74.023438 119.457031 72.851562 119.457031 L 68.609375 119.457031 C 67.4375 119.457031 66.488281 120.34375 66.488281 121.4375 C 66.488281 122.53125 67.4375 123.421875 68.609375 123.421875 Z M 55.878906 123.421875 L 60.125 123.421875 C 61.292969 123.421875 62.246094 122.53125 62.246094 121.4375 C 62.246094 120.34375 61.292969 119.457031 60.125 119.457031 L 55.878906 119.457031 C 54.710938 119.457031 53.757812 120.34375 53.757812 121.4375 C 53.757812 122.53125 54.710938 123.421875 55.878906 123.421875 Z M 628.714844 123.421875 L 632.957031 123.421875 C 634.128906 123.421875 635.082031 122.53125 635.082031 121.4375 C 635.082031 120.34375 634.128906 119.457031 632.957031 119.457031 L 628.714844 119.457031 C 627.542969 119.457031 626.59375 120.34375 626.59375 121.4375 C 626.59375 122.53125 627.542969 123.421875 628.714844 123.421875 Z M 335.933594 123.421875 L 340.175781 123.421875 C 341.347656 123.421875 342.296875 122.53125 342.296875 121.4375 C 342.296875 120.34375 341.347656 119.457031 340.175781 119.457031 L 335.933594 119.457031 C 334.761719 119.457031 333.8125 120.34375 333.8125 121.4375 C 333.8125 122.53125 334.761719 123.421875 335.933594 123.421875 Z M 323.203125 123.421875 L 327.445312 123.421875 C 328.617188 123.421875 329.570312 122.53125 329.570312 121.4375 C 329.570312 120.34375 328.617188 119.457031 327.445312 119.457031 L 323.203125 119.457031 C 322.03125 119.457031 321.082031 120.34375 321.082031 121.4375 C 321.082031 122.53125 322.03125 123.421875 323.203125 123.421875 Z M 310.472656 123.421875 L 314.71875 123.421875 C 315.890625 123.421875 316.839844 122.53125 316.839844 121.4375 C 316.839844 120.34375 315.890625 119.457031 314.71875 119.457031 L 310.472656 119.457031 C 309.304688 119.457031 308.351562 120.34375 308.351562 121.4375 C 308.351562 122.53125 309.304688 123.421875 310.472656 123.421875 Z M 195.90625 123.421875 L 200.152344 123.421875 C 201.320312 123.421875 202.273438 122.53125 202.273438 121.4375 C 202.273438 120.34375 201.320312 119.457031 200.152344 119.457031 L 195.90625 119.457031 C 194.738281 119.457031 193.785156 120.34375 193.785156 121.4375 C 193.785156 122.53125 194.738281 123.421875 195.90625 123.421875 Z M 259.554688 123.421875 L 263.800781 123.421875 C 264.96875 123.421875 265.921875 122.53125 265.921875 121.4375 C 265.921875 120.34375 264.96875 119.457031 263.800781 119.457031 L 259.554688 119.457031 C 258.386719 119.457031 257.433594 120.34375 257.433594 121.4375 C 257.433594 122.53125 258.386719 123.421875 259.554688 123.421875 Z M 272.285156 123.421875 L 276.527344 123.421875 C 277.699219 123.421875 278.652344 122.53125 278.652344 121.4375 C 278.652344 120.34375 277.699219 119.457031 276.527344 119.457031 L 272.285156 119.457031 C 271.113281 119.457031 270.164062 120.34375 270.164062 121.4375 C 270.164062 122.53125 271.113281 123.421875 272.285156 123.421875 Z M 641.445312 123.421875 L 645.6875 123.421875 C 646.859375 123.421875 647.8125 122.53125 647.8125 121.4375 C 647.8125 120.34375 646.859375 119.457031 645.6875 119.457031 L 641.445312 119.457031 C 640.273438 119.457031 639.324219 120.34375 639.324219 121.4375 C 639.324219 122.53125 640.273438 123.421875 641.445312 123.421875 Z M 285.019531 123.421875 L 289.261719 123.421875 C 290.433594 123.421875 291.382812 122.53125 291.382812 121.4375 C 291.382812 120.34375 290.433594 119.457031 289.261719 119.457031 L 285.019531 119.457031 C 283.847656 119.457031 282.894531 120.34375 282.894531 121.4375 C 282.894531 122.53125 283.847656 123.421875 285.019531 123.421875 Z M 297.746094 123.421875 L 301.992188 123.421875 C 303.160156 123.421875 304.113281 122.53125 304.113281 121.4375 C 304.113281 120.34375 303.160156 119.457031 301.992188 119.457031 L 297.746094 119.457031 C 296.578125 119.457031 295.625 120.34375 295.625 121.4375 C 295.625 122.53125 296.578125 123.421875 297.746094 123.421875 Z M 43.574219 118.773438 C 44.65625 120.539062 45.398438 121.753906 45.683594 122.214844 C 46.265625 123.164062 47.5625 123.496094 48.578125 122.953125 C 49.59375 122.410156 49.949219 121.195312 49.367188 120.246094 C 49.082031 119.785156 48.339844 118.570312 47.257812 116.804688 C 46.675781 115.855469 45.378906 115.523438 44.363281 116.070312 C 43.347656 116.613281 42.992188 117.824219 43.574219 118.773438 Z M 664.410156 115.710938 C 664.980469 114.625 665.609375 113.429688 666.285156 112.152344 C 666.800781 111.167969 666.367188 109.980469 665.316406 109.496094 C 664.265625 109.015625 662.992188 109.417969 662.476562 110.402344 C 661.800781 111.679688 661.175781 112.875 660.601562 113.957031 C 660.085938 114.941406 660.519531 116.128906 661.570312 116.613281 C 662.621094 117.09375 663.894531 116.691406 664.410156 115.710938 Z M 37.253906 108.449219 C 37.984375 109.644531 38.691406 110.796875 39.359375 111.890625 C 39.941406 112.839844 41.238281 113.171875 42.253906 112.625 C 43.273438 112.082031 43.625 110.871094 43.042969 109.921875 C 42.375 108.828125 41.667969 107.675781 40.9375 106.480469 C 40.355469 105.53125 39.058594 105.199219 38.039062 105.742188 C 37.023438 106.289062 36.671875 107.5 37.253906 108.449219 Z M 670.03125 105.035156 C 670.640625 103.878906 671.265625 102.6875 671.902344 101.476562 C 672.421875 100.496094 671.988281 99.304688 670.9375 98.824219 C 669.886719 98.339844 668.613281 98.746094 668.097656 99.726562 C 667.457031 100.9375 666.832031 102.125 666.222656 103.285156 C 665.707031 104.265625 666.140625 105.457031 667.191406 105.9375 C 668.242188 106.421875 669.515625 106.015625 670.03125 105.035156 Z M 30.929688 98.125 C 31.640625 99.28125 32.34375 100.429688 33.039062 101.566406 C 33.621094 102.515625 34.917969 102.84375 35.933594 102.300781 C 36.949219 101.757812 37.300781 100.546875 36.722656 99.597656 C 36.027344 98.460938 35.320312 97.3125 34.613281 96.15625 C 34.03125 95.207031 32.734375 94.875 31.71875 95.417969 C 30.703125 95.960938 30.347656 97.175781 30.929688 98.125 Z M 675.648438 94.363281 C 676.269531 93.175781 676.898438 91.988281 677.519531 90.804688 C 678.039062 89.820312 677.605469 88.632812 676.554688 88.148438 C 675.503906 87.667969 674.230469 88.070312 673.714844 89.054688 C 673.089844 90.238281 672.464844 91.425781 671.839844 92.609375 C 671.324219 93.59375 671.757812 94.78125 672.808594 95.265625 C 673.859375 95.75 675.128906 95.34375 675.648438 94.363281 Z M 24.609375 87.800781 C 25.300781 88.929688 26.003906 90.082031 26.714844 91.242188 C 27.296875 92.191406 28.59375 92.519531 29.609375 91.976562 C 30.628906 91.433594 30.980469 90.222656 30.398438 89.273438 C 29.6875 88.109375 28.984375 86.960938 28.292969 85.832031 C 27.710938 84.878906 26.414062 84.550781 25.394531 85.09375 C 24.378906 85.636719 24.027344 86.851562 24.609375 87.800781 Z M 681.269531 83.6875 C 681.90625 82.476562 682.53125 81.289062 683.140625 80.128906 C 683.65625 79.148438 683.222656 77.957031 682.171875 77.476562 C 681.121094 76.992188 679.851562 77.398438 679.332031 78.378906 C 678.722656 79.539062 678.097656 80.726562 677.460938 81.9375 C 676.941406 82.917969 677.375 84.109375 678.425781 84.589844 C 679.476562 85.074219 680.75 84.667969 681.269531 83.6875 Z M 18.285156 77.472656 C 18.949219 78.558594 19.652344 79.710938 20.394531 80.917969 C 20.972656 81.867188 22.273438 82.195312 23.289062 81.652344 C 24.304688 81.109375 24.65625 79.898438 24.074219 78.945312 C 23.335938 77.738281 22.632812 76.589844 21.96875 75.503906 C 21.386719 74.554688 20.089844 74.226562 19.074219 74.769531 C 18.058594 75.3125 17.703125 76.523438 18.285156 77.472656 Z M 686.886719 73.015625 C 687.558594 71.738281 688.1875 70.546875 688.761719 69.457031 C 689.277344 68.472656 688.84375 67.285156 687.792969 66.800781 C 686.742188 66.320312 685.46875 66.722656 684.953125 67.707031 C 684.378906 68.796875 683.75 69.988281 683.078125 71.261719 C 682.5625 72.246094 682.996094 73.433594 684.046875 73.917969 C 685.097656 74.402344 686.371094 73.996094 686.886719 73.015625 Z M 13.378906 65.199219 C 12.925781 65.980469 12.675781 66.40625 12.675781 66.40625 C 12.320312 67.011719 12.328125 67.742188 12.695312 68.34375 C 12.695312 68.34375 13.195312 69.160156 14.074219 70.589844 C 14.652344 71.542969 15.953125 71.871094 16.96875 71.328125 C 17.984375 70.785156 18.335938 69.570312 17.753906 68.621094 L 16.96875 67.335938 C 16.96875 67.335938 17.101562 67.105469 17.101562 67.105469 C 17.664062 66.144531 17.289062 64.9375 16.261719 64.414062 C 15.234375 63.886719 13.941406 64.242188 13.378906 65.199219 Z M 692.292969 60.476562 C 692.058594 60.097656 691.300781 58.875 690.164062 57.042969 C 689.578125 56.097656 688.28125 55.773438 687.265625 56.324219 C 686.253906 56.871094 685.90625 58.085938 686.496094 59.03125 C 687.628906 60.859375 688.386719 62.085938 688.621094 62.464844 C 689.210938 63.410156 690.507812 63.734375 691.519531 63.183594 C 692.535156 62.636719 692.878906 61.421875 692.292969 60.476562 Z M 19.488281 54.765625 C 18.769531 55.996094 18.085938 57.160156 17.453125 58.242188 C 16.890625 59.203125 17.269531 60.410156 18.296875 60.933594 C 19.324219 61.460938 20.613281 61.105469 21.175781 60.144531 C 21.808594 59.0625 22.492188 57.898438 23.210938 56.667969 C 23.773438 55.707031 23.394531 54.5 22.367188 53.976562 C 21.339844 53.453125 20.050781 53.804688 19.488281 54.765625 Z M 685.910156 50.183594 C 685.234375 49.09375 684.523438 47.945312 683.785156 46.75 C 683.199219 45.804688 681.898438 45.480469 680.886719 46.03125 C 679.871094 46.578125 679.527344 47.792969 680.113281 48.738281 C 680.851562 49.929688 681.5625 51.078125 682.242188 52.171875 C 682.828125 53.117188 684.125 53.441406 685.140625 52.890625 C 686.152344 52.34375 686.5 51.128906 685.910156 50.183594 Z M 25.601562 44.328125 C 24.910156 45.503906 24.230469 46.667969 23.5625 47.808594 C 23 48.765625 23.378906 49.972656 24.40625 50.496094 C 25.433594 51.023438 26.722656 50.667969 27.285156 49.710938 C 27.953125 48.570312 28.632812 47.410156 29.324219 46.230469 C 29.882812 45.269531 29.507812 44.066406 28.480469 43.539062 C 27.453125 43.015625 26.160156 43.367188 25.601562 44.328125 Z M 679.53125 39.890625 C 678.828125 38.757812 678.117188 37.609375 677.402344 36.460938 C 676.816406 35.511719 675.515625 35.191406 674.503906 35.738281 C 673.492188 36.285156 673.144531 37.5 673.730469 38.449219 C 674.445312 39.597656 675.15625 40.746094 675.859375 41.878906 C 676.445312 42.824219 677.746094 43.148438 678.757812 42.601562 C 679.769531 42.050781 680.117188 40.835938 679.53125 39.890625 Z M 31.707031 33.890625 C 31.035156 35.042969 30.351562 36.207031 29.671875 37.371094 C 29.109375 38.332031 29.488281 39.535156 30.515625 40.0625 C 31.542969 40.585938 32.832031 40.234375 33.394531 39.273438 C 34.074219 38.109375 34.757812 36.949219 35.429688 35.792969 C 35.992188 34.835938 35.613281 33.628906 34.585938 33.105469 C 33.558594 32.578125 32.269531 32.933594 31.707031 33.890625 Z M 673.148438 29.597656 C 672.425781 28.433594 671.714844 27.285156 671.019531 26.167969 C 670.433594 25.21875 669.136719 24.898438 668.121094 25.445312 C 667.109375 25.996094 666.761719 27.207031 667.351562 28.15625 C 668.042969 29.273438 668.753906 30.421875 669.476562 31.585938 C 670.0625 32.53125 671.363281 32.855469 672.375 32.308594 C 673.390625 31.757812 673.734375 30.542969 673.148438 29.597656 Z M 37.820312 23.457031 C 37.164062 24.578125 36.480469 25.738281 35.78125 26.933594 C 35.222656 27.894531 35.597656 29.101562 36.625 29.625 C 37.652344 30.148438 38.945312 29.796875 39.503906 28.835938 C 40.203125 27.640625 40.886719 26.480469 41.542969 25.359375 C 42.101562 24.398438 41.726562 23.191406 40.699219 22.667969 C 39.671875 22.144531 38.382812 22.496094 37.820312 23.457031 Z M 666.765625 19.304688 C 666 18.070312 665.289062 16.917969 664.640625 15.875 C 664.050781 14.929688 662.753906 14.605469 661.742188 15.152344 C 660.726562 15.703125 660.382812 16.914062 660.96875 17.863281 C 661.617188 18.90625 662.328125 20.058594 663.09375 21.292969 C 663.683594 22.238281 664.980469 22.5625 665.996094 22.015625 C 667.007812 21.464844 667.355469 20.253906 666.765625 19.304688 Z M 43.925781 13.019531 C 43.355469 13.996094 42.667969 15.167969 41.890625 16.5 C 41.328125 17.457031 41.707031 18.664062 42.734375 19.1875 C 43.761719 19.714844 45.050781 19.359375 45.613281 18.402344 C 46.390625 17.070312 47.078125 15.898438 47.648438 14.921875 C 48.210938 13.960938 47.832031 12.757812 46.804688 12.230469 C 45.777344 11.707031 44.488281 12.058594 43.925781 13.019531 Z M 476.574219 8.804688 L 472.332031 8.804688 C 471.164062 8.804688 470.210938 9.691406 470.210938 10.785156 C 470.210938 11.878906 471.164062 12.769531 472.332031 12.769531 L 476.574219 12.769531 C 477.746094 12.769531 478.699219 11.878906 478.699219 10.785156 C 478.699219 9.691406 477.746094 8.804688 476.574219 8.804688 Z M 463.847656 8.804688 L 459.601562 8.804688 C 458.433594 8.804688 457.480469 9.691406 457.480469 10.785156 C 457.480469 11.878906 458.433594 12.769531 459.601562 12.769531 L 463.847656 12.769531 C 465.015625 12.769531 465.96875 11.878906 465.96875 10.785156 C 465.96875 9.691406 465.015625 8.804688 463.847656 8.804688 Z M 489.304688 8.804688 L 485.0625 8.804688 C 483.890625 8.804688 482.941406 9.691406 482.941406 10.785156 C 482.941406 11.878906 483.890625 12.769531 485.0625 12.769531 L 489.304688 12.769531 C 490.476562 12.769531 491.425781 11.878906 491.425781 10.785156 C 491.425781 9.691406 490.476562 8.804688 489.304688 8.804688 Z M 260.171875 8.804688 L 255.929688 8.804688 C 254.757812 8.804688 253.808594 9.691406 253.808594 10.785156 C 253.808594 11.878906 254.757812 12.769531 255.929688 12.769531 L 260.171875 12.769531 C 261.34375 12.769531 262.292969 11.878906 262.292969 10.785156 C 262.292969 9.691406 261.34375 8.804688 260.171875 8.804688 Z M 451.117188 8.804688 L 446.871094 8.804688 C 445.703125 8.804688 444.75 9.691406 444.75 10.785156 C 444.75 11.878906 445.703125 12.769531 446.871094 12.769531 L 451.117188 12.769531 C 452.285156 12.769531 453.238281 11.878906 453.238281 10.785156 C 453.238281 9.691406 452.289062 8.804688 451.117188 8.804688 Z M 502.035156 8.804688 L 497.792969 8.804688 C 496.621094 8.804688 495.671875 9.691406 495.671875 10.785156 C 495.671875 11.878906 496.621094 12.769531 497.792969 12.769531 L 502.035156 12.769531 C 503.207031 12.769531 504.15625 11.878906 504.15625 10.785156 C 504.15625 9.691406 503.207031 8.804688 502.035156 8.804688 Z M 209.253906 8.804688 L 205.011719 8.804688 C 203.839844 8.804688 202.886719 9.691406 202.886719 10.785156 C 202.886719 11.878906 203.839844 12.769531 205.011719 12.769531 L 209.253906 12.769531 C 210.425781 12.769531 211.375 11.878906 211.375 10.785156 C 211.375 9.691406 210.425781 8.804688 209.253906 8.804688 Z M 221.984375 8.804688 L 217.738281 8.804688 C 216.570312 8.804688 215.617188 9.691406 215.617188 10.785156 C 215.617188 11.878906 216.570312 12.769531 217.738281 12.769531 L 221.984375 12.769531 C 223.152344 12.769531 224.105469 11.878906 224.105469 10.785156 C 224.105469 9.691406 223.152344 8.804688 221.984375 8.804688 Z M 234.710938 8.804688 L 230.46875 8.804688 C 229.296875 8.804688 228.347656 9.691406 228.347656 10.785156 C 228.347656 11.878906 229.296875 12.769531 230.46875 12.769531 L 234.710938 12.769531 C 235.882812 12.769531 236.835938 11.878906 236.835938 10.785156 C 236.835938 9.691406 235.882812 8.804688 234.710938 8.804688 Z M 247.441406 8.804688 L 243.199219 8.804688 C 242.027344 8.804688 241.078125 9.691406 241.078125 10.785156 C 241.078125 11.878906 242.027344 12.769531 243.199219 12.769531 L 247.441406 12.769531 C 248.613281 12.769531 249.5625 11.878906 249.5625 10.785156 C 249.5625 9.691406 248.613281 8.804688 247.441406 8.804688 Z M 272.902344 8.804688 L 268.65625 8.804688 C 267.488281 8.804688 266.535156 9.691406 266.535156 10.785156 C 266.535156 11.878906 267.488281 12.769531 268.65625 12.769531 L 272.902344 12.769531 C 274.070312 12.769531 275.023438 11.878906 275.023438 10.785156 C 275.023438 9.691406 274.070312 8.804688 272.902344 8.804688 Z M 438.386719 8.804688 L 434.144531 8.804688 C 432.972656 8.804688 432.023438 9.691406 432.023438 10.785156 C 432.023438 11.878906 432.972656 12.769531 434.144531 12.769531 L 438.386719 12.769531 C 439.558594 12.769531 440.507812 11.878906 440.507812 10.785156 C 440.507812 9.691406 439.558594 8.804688 438.386719 8.804688 Z M 400.195312 8.804688 L 395.953125 8.804688 C 394.78125 8.804688 393.832031 9.691406 393.832031 10.785156 C 393.832031 11.878906 394.78125 12.769531 395.953125 12.769531 L 400.195312 12.769531 C 401.367188 12.769531 402.320312 11.878906 402.320312 10.785156 C 402.320312 9.691406 401.367188 8.804688 400.195312 8.804688 Z M 540.222656 8.804688 L 535.980469 8.804688 C 534.808594 8.804688 533.859375 9.691406 533.859375 10.785156 C 533.859375 11.878906 534.808594 12.769531 535.980469 12.769531 L 540.222656 12.769531 C 541.394531 12.769531 542.34375 11.878906 542.34375 10.785156 C 542.34375 9.691406 541.394531 8.804688 540.222656 8.804688 Z M 527.492188 8.804688 L 523.25 8.804688 C 522.078125 8.804688 521.128906 9.691406 521.128906 10.785156 C 521.128906 11.878906 522.078125 12.769531 523.25 12.769531 L 527.492188 12.769531 C 528.664062 12.769531 529.613281 11.878906 529.613281 10.785156 C 529.613281 9.691406 528.664062 8.804688 527.492188 8.804688 Z M 514.765625 8.804688 L 510.519531 8.804688 C 509.347656 8.804688 508.398438 9.691406 508.398438 10.785156 C 508.398438 11.878906 509.347656 12.769531 510.519531 12.769531 L 514.765625 12.769531 C 515.933594 12.769531 516.886719 11.878906 516.886719 10.785156 C 516.886719 9.691406 515.933594 8.804688 514.765625 8.804688 Z M 285.628906 8.804688 L 281.386719 8.804688 C 280.214844 8.804688 279.265625 9.691406 279.265625 10.785156 C 279.265625 11.878906 280.214844 12.769531 281.386719 12.769531 L 285.628906 12.769531 C 286.800781 12.769531 287.753906 11.878906 287.753906 10.785156 C 287.753906 9.691406 286.800781 8.804688 285.628906 8.804688 Z M 298.359375 8.804688 L 294.117188 8.804688 C 292.945312 8.804688 291.996094 9.691406 291.996094 10.785156 C 291.996094 11.878906 292.945312 12.769531 294.117188 12.769531 L 298.359375 12.769531 C 299.53125 12.769531 300.484375 11.878906 300.484375 10.785156 C 300.484375 9.691406 299.53125 8.804688 298.359375 8.804688 Z M 425.65625 8.804688 L 421.414062 8.804688 C 420.242188 8.804688 419.292969 9.691406 419.292969 10.785156 C 419.292969 11.878906 420.242188 12.769531 421.414062 12.769531 L 425.65625 12.769531 C 426.828125 12.769531 427.777344 11.878906 427.777344 10.785156 C 427.777344 9.691406 426.828125 8.804688 425.65625 8.804688 Z M 374.738281 8.804688 L 370.492188 8.804688 C 369.324219 8.804688 368.371094 9.691406 368.371094 10.785156 C 368.371094 11.878906 369.324219 12.769531 370.492188 12.769531 L 374.738281 12.769531 C 375.90625 12.769531 376.859375 11.878906 376.859375 10.785156 C 376.859375 9.691406 375.90625 8.804688 374.738281 8.804688 Z M 412.925781 8.804688 L 408.683594 8.804688 C 407.511719 8.804688 406.5625 9.691406 406.5625 10.785156 C 406.5625 11.878906 407.511719 12.769531 408.683594 12.769531 L 412.925781 12.769531 C 414.097656 12.769531 415.046875 11.878906 415.046875 10.785156 C 415.046875 9.691406 414.097656 8.804688 412.925781 8.804688 Z M 56.5 8.804688 L 52.253906 8.804688 C 51.085938 8.804688 50.132812 9.691406 50.132812 10.785156 C 50.132812 11.878906 51.085938 12.769531 52.253906 12.769531 L 56.5 12.769531 C 57.667969 12.769531 58.621094 11.878906 58.621094 10.785156 C 58.621094 9.691406 57.667969 8.804688 56.5 8.804688 Z M 578.410156 8.804688 L 574.167969 8.804688 C 572.996094 8.804688 572.046875 9.691406 572.046875 10.785156 C 572.046875 11.878906 572.996094 12.769531 574.167969 12.769531 L 578.410156 12.769531 C 579.582031 12.769531 580.535156 11.878906 580.535156 10.785156 C 580.535156 9.691406 579.582031 8.804688 578.410156 8.804688 Z M 565.683594 8.804688 L 561.4375 8.804688 C 560.269531 8.804688 559.316406 9.691406 559.316406 10.785156 C 559.316406 11.878906 560.269531 12.769531 561.4375 12.769531 L 565.683594 12.769531 C 566.851562 12.769531 567.804688 11.878906 567.804688 10.785156 C 567.804688 9.691406 566.851562 8.804688 565.683594 8.804688 Z M 552.953125 8.804688 L 548.710938 8.804688 C 547.539062 8.804688 546.589844 9.691406 546.589844 10.785156 C 546.589844 11.878906 547.539062 12.769531 548.710938 12.769531 L 552.953125 12.769531 C 554.125 12.769531 555.074219 11.878906 555.074219 10.785156 C 555.074219 9.691406 554.125 8.804688 552.953125 8.804688 Z M 196.523438 8.804688 L 192.28125 8.804688 C 191.109375 8.804688 190.160156 9.691406 190.160156 10.785156 C 190.160156 11.878906 191.109375 12.769531 192.28125 12.769531 L 196.523438 12.769531 C 197.695312 12.769531 198.644531 11.878906 198.644531 10.785156 C 198.644531 9.691406 197.695312 8.804688 196.523438 8.804688 Z M 311.089844 8.804688 L 306.847656 8.804688 C 305.675781 8.804688 304.726562 9.691406 304.726562 10.785156 C 304.726562 11.878906 305.675781 12.769531 306.847656 12.769531 L 311.089844 12.769531 C 312.261719 12.769531 313.214844 11.878906 313.214844 10.785156 C 313.214844 9.691406 312.261719 8.804688 311.089844 8.804688 Z M 323.820312 8.804688 L 319.578125 8.804688 C 318.40625 8.804688 317.457031 9.691406 317.457031 10.785156 C 317.457031 11.878906 318.40625 12.769531 319.578125 12.769531 L 323.820312 12.769531 C 324.992188 12.769531 325.941406 11.878906 325.941406 10.785156 C 325.941406 9.691406 324.992188 8.804688 323.820312 8.804688 Z M 387.46875 8.804688 L 383.222656 8.804688 C 382.054688 8.804688 381.101562 9.691406 381.101562 10.785156 C 381.101562 11.878906 382.054688 12.769531 383.222656 12.769531 L 387.46875 12.769531 C 388.640625 12.769531 389.589844 11.878906 389.589844 10.785156 C 389.589844 9.691406 388.640625 8.804688 387.46875 8.804688 Z M 362.007812 8.804688 L 357.765625 8.804688 C 356.59375 8.804688 355.644531 9.691406 355.644531 10.785156 C 355.644531 11.878906 356.59375 12.769531 357.765625 12.769531 L 362.007812 12.769531 C 363.179688 12.769531 364.128906 11.878906 364.128906 10.785156 C 364.128906 9.691406 363.179688 8.804688 362.007812 8.804688 Z M 654.789062 8.804688 L 650.546875 8.804688 C 649.375 8.804688 648.425781 9.691406 648.425781 10.785156 C 648.425781 11.878906 649.375 12.769531 650.546875 12.769531 L 654.789062 12.769531 C 655.960938 12.769531 656.910156 11.878906 656.910156 10.785156 C 656.910156 9.691406 655.960938 8.804688 654.789062 8.804688 Z M 336.550781 8.804688 L 332.304688 8.804688 C 331.136719 8.804688 330.183594 9.691406 330.183594 10.785156 C 330.183594 11.878906 331.136719 12.769531 332.304688 12.769531 L 336.550781 12.769531 C 337.71875 12.769531 338.671875 11.878906 338.671875 10.785156 C 338.671875 9.691406 337.71875 8.804688 336.550781 8.804688 Z M 183.792969 8.804688 L 179.550781 8.804688 C 178.378906 8.804688 177.429688 9.691406 177.429688 10.785156 C 177.429688 11.878906 178.378906 12.769531 179.550781 12.769531 L 183.792969 12.769531 C 184.964844 12.769531 185.917969 11.878906 185.917969 10.785156 C 185.917969 9.691406 184.964844 8.804688 183.792969 8.804688 Z M 81.957031 8.804688 L 77.714844 8.804688 C 76.542969 8.804688 75.59375 9.691406 75.59375 10.785156 C 75.59375 11.878906 76.542969 12.769531 77.714844 12.769531 L 81.957031 12.769531 C 83.128906 12.769531 84.078125 11.878906 84.078125 10.785156 C 84.078125 9.691406 83.128906 8.804688 81.957031 8.804688 Z M 69.226562 8.804688 L 64.984375 8.804688 C 63.8125 8.804688 62.863281 9.691406 62.863281 10.785156 C 62.863281 11.878906 63.8125 12.769531 64.984375 12.769531 L 69.226562 12.769531 C 70.398438 12.769531 71.351562 11.878906 71.351562 10.785156 C 71.351562 9.691406 70.398438 8.804688 69.226562 8.804688 Z M 591.140625 8.804688 L 586.898438 8.804688 C 585.726562 8.804688 584.777344 9.691406 584.777344 10.785156 C 584.777344 11.878906 585.726562 12.769531 586.898438 12.769531 L 591.140625 12.769531 C 592.3125 12.769531 593.261719 11.878906 593.261719 10.785156 C 593.261719 9.691406 592.3125 8.804688 591.140625 8.804688 Z M 171.066406 8.804688 L 166.824219 8.804688 C 165.652344 8.804688 164.699219 9.691406 164.699219 10.785156 C 164.699219 11.878906 165.652344 12.769531 166.824219 12.769531 L 171.066406 12.769531 C 172.238281 12.769531 173.1875 11.878906 173.1875 10.785156 C 173.1875 9.691406 172.238281 8.804688 171.066406 8.804688 Z M 145.605469 8.804688 L 141.363281 8.804688 C 140.191406 8.804688 139.242188 9.691406 139.242188 10.785156 C 139.242188 11.878906 140.191406 12.769531 141.363281 12.769531 L 145.605469 12.769531 C 146.777344 12.769531 147.726562 11.878906 147.726562 10.785156 C 147.726562 9.691406 146.777344 8.804688 145.605469 8.804688 Z M 132.875 8.804688 L 128.632812 8.804688 C 127.460938 8.804688 126.511719 9.691406 126.511719 10.785156 C 126.511719 11.878906 127.460938 12.769531 128.632812 12.769531 L 132.875 12.769531 C 134.046875 12.769531 135 11.878906 135 10.785156 C 135 9.691406 134.046875 8.804688 132.875 8.804688 Z M 107.417969 8.804688 L 103.175781 8.804688 C 102.003906 8.804688 101.054688 9.691406 101.054688 10.785156 C 101.054688 11.878906 102.003906 12.769531 103.175781 12.769531 L 107.417969 12.769531 C 108.589844 12.769531 109.539062 11.878906 109.539062 10.785156 C 109.539062 9.691406 108.589844 8.804688 107.417969 8.804688 Z M 94.6875 8.804688 L 90.445312 8.804688 C 89.273438 8.804688 88.324219 9.691406 88.324219 10.785156 C 88.324219 11.878906 89.273438 12.769531 90.445312 12.769531 L 94.6875 12.769531 C 95.859375 12.769531 96.808594 11.878906 96.808594 10.785156 C 96.808594 9.691406 95.859375 8.804688 94.6875 8.804688 Z M 603.871094 8.804688 L 599.628906 8.804688 C 598.457031 8.804688 597.507812 9.691406 597.507812 10.785156 C 597.507812 11.878906 598.457031 12.769531 599.628906 12.769531 L 603.871094 12.769531 C 605.042969 12.769531 605.992188 11.878906 605.992188 10.785156 C 605.992188 9.691406 605.042969 8.804688 603.871094 8.804688 Z M 629.332031 8.804688 L 625.089844 8.804688 C 623.917969 8.804688 622.96875 9.691406 622.96875 10.785156 C 622.96875 11.878906 623.917969 12.769531 625.089844 12.769531 L 629.332031 12.769531 C 630.503906 12.769531 631.453125 11.878906 631.453125 10.785156 C 631.453125 9.691406 630.503906 8.804688 629.332031 8.804688 Z M 642.0625 8.804688 L 637.820312 8.804688 C 636.648438 8.804688 635.699219 9.691406 635.699219 10.785156 C 635.699219 11.878906 636.648438 12.769531 637.820312 12.769531 L 642.0625 12.769531 C 643.234375 12.769531 644.183594 11.878906 644.183594 10.785156 C 644.183594 9.691406 643.234375 8.804688 642.0625 8.804688 Z M 349.28125 8.804688 L 345.039062 8.804688 C 343.867188 8.804688 342.914062 9.691406 342.914062 10.785156 C 342.914062 11.878906 343.867188 12.769531 345.039062 12.769531 L 349.28125 12.769531 C 350.453125 12.769531 351.402344 11.878906 351.402344 10.785156 C 351.402344 9.691406 350.453125 8.804688 349.28125 8.804688 Z M 158.335938 8.804688 L 154.09375 8.804688 C 152.921875 8.804688 151.972656 9.691406 151.972656 10.785156 C 151.972656 11.878906 152.921875 12.769531 154.09375 12.769531 L 158.335938 12.769531 C 159.507812 12.769531 160.457031 11.878906 160.457031 10.785156 C 160.457031 9.691406 159.507812 8.804688 158.335938 8.804688 Z M 120.148438 8.804688 L 115.90625 8.804688 C 114.734375 8.804688 113.785156 9.691406 113.785156 10.785156 C 113.785156 11.878906 114.734375 12.769531 115.90625 12.769531 L 120.148438 12.769531 C 121.320312 12.769531 122.269531 11.878906 122.269531 10.785156 C 122.269531 9.691406 121.320312 8.804688 120.148438 8.804688 Z M 616.605469 8.804688 L 612.359375 8.804688 C 611.1875 8.804688 610.238281 9.691406 610.238281 10.785156 C 610.238281 11.878906 611.1875 12.769531 612.359375 12.769531 L 616.605469 12.769531 C 617.773438 12.769531 618.726562 11.878906 618.726562 10.785156 C 618.726562 9.691406 617.773438 8.804688 616.605469 8.804688 Z M 616.605469 8.804688 " fill-opacity="1" fill-rule="evenodd"/></svg>