<svg xmlns="http://www.w3.org/2000/svg" xmlns:xlink="http://www.w3.org/1999/xlink" width="1080" zoomAndPan="magnify" viewBox="0 0 810 1439.999935" height="1920" preserveAspectRatio="xMidYMid meet" version="1.0"><defs><filter x="0%" y="0%" width="100%" height="100%" id="bf17f30d7e"><feColorMatrix values="0 0 0 0 1 0 0 0 0 1 0 0 0 0 1 0 0 0 1 0" color-interpolation-filters="sRGB"/></filter><mask id="2718d8fc55"><g filter="url(#bf17f30d7e)"><rect x="-81" width="972" fill="#000000" y="-143.999994" height="1727.999922" fill-opacity="0.5"/></g></mask><clipPath id="8345a7e3b4"><rect x="0" width="810" y="0" height="771"/></clipPath><mask id="8fa42d8163"><g filter="url(#bf17f30d7e)"><rect x="-81" width="972" fill="#000000" y="-143.999994" height="1727.999922" fill-opacity="0.5"/></g></mask><clipPath id="6973299cd0"><path d="M 0.078125 0 L 41 0 L 41 810 L 0.078125 810 Z M 0.078125 0 " clip-rule="nonzero"/></clipPath><clipPath id="79e4ce7a90"><rect x="0" width="770" y="0" height="810"/></clipPath><mask id="f8c6c78f0a"><g filter="url(#bf17f30d7e)"><rect x="-81" width="972" fill="#000000" y="-143.999994" height="1727.999922" fill-opacity="0.5"/></g></mask><clipPath id="1a19247616"><rect x="0" width="810" y="0" height="630"/></clipPath><mask id="57ec8fd101"><g filter="url(#bf17f30d7e)"><rect x="-81" width="972" fill="#000000" y="-143.999994" height="1727.999922" fill-opacity="0.5"/></g></mask><clipPath id="ba962e835a"><path d="M 0.078125 0 L 41 0 L 41 630 L 0.078125 630 Z M 0.078125 0 " clip-rule="nonzero"/></clipPath><clipPath id="a77dd94b1d"><path d="M 81 0 L 122 0 L 122 630 L 81 630 Z M 81 0 " clip-rule="nonzero"/></clipPath><clipPath id="958fc55427"><path d="M 162 0 L 203 0 L 203 630 L 162 630 Z M 162 0 " clip-rule="nonzero"/></clipPath><clipPath id="b1a89840af"><path d="M 243 0 L 284 0 L 284 630 L 243 630 Z M 243 0 " clip-rule="nonzero"/></clipPath><clipPath id="097b77ec65"><path d="M 324 0 L 365 0 L 365 630 L 324 630 Z M 324 0 " clip-rule="nonzero"/></clipPath><clipPath id="06aaac7c99"><path d="M 405 0 L 446 0 L 446 630 L 405 630 Z M 405 0 " clip-rule="nonzero"/></clipPath><clipPath id="a76c4e5e2b"><path d="M 486 0 L 527 0 L 527 630 L 486 630 Z M 486 0 " clip-rule="nonzero"/></clipPath><clipPath id="41304e40d0"><path d="M 567 0 L 608 0 L 608 630 L 567 630 Z M 567 0 " clip-rule="nonzero"/></clipPath><clipPath id="1d28d1515d"><path d="M 648 0 L 689 0 L 689 630 L 648 630 Z M 648 0 " clip-rule="nonzero"/></clipPath><clipPath id="d5a17b11c5"><path d="M 729 0 L 770 0 L 770 630 L 729 630 Z M 729 0 " clip-rule="nonzero"/></clipPath><clipPath id="08c6356ea1"><rect x="0" width="770" y="0" height="630"/></clipPath></defs><path fill="#ffffff" d="M 0 630 L 810 630 L 810 1440 L 0 1440 Z M 0 630 " fill-opacity="1" fill-rule="nonzero"/><g mask="url(#2718d8fc55)"><g transform="matrix(1, 0, 0, 1, 0, 669)"><g clip-path="url(#8345a7e3b4)"><path fill="#baa6e2" d="M 0 1.5 L 810 1.5 L 810 42 L 0 42 Z M 0 1.5 " fill-opacity="1" fill-rule="nonzero"/><path fill="#baa6e2" d="M 0 82.5 L 810 82.5 L 810 123 L 0 123 Z M 0 82.5 " fill-opacity="1" fill-rule="nonzero"/><path fill="#baa6e2" d="M 0 163.5 L 810 163.5 L 810 204 L 0 204 Z M 0 163.5 " fill-opacity="1" fill-rule="nonzero"/><path fill="#baa6e2" d="M 0 244.5 L 810 244.5 L 810 285 L 0 285 Z M 0 244.5 " fill-opacity="1" fill-rule="nonzero"/><path fill="#baa6e2" d="M 0 325.5 L 810 325.5 L 810 366 L 0 366 Z M 0 325.5 " fill-opacity="1" fill-rule="nonzero"/><path fill="#baa6e2" d="M 0 406.5 L 810 406.5 L 810 447 L 0 447 Z M 0 406.5 " fill-opacity="1" fill-rule="nonzero"/><path fill="#baa6e2" d="M 0 487.5 L 810 487.5 L 810 528 L 0 528 Z M 0 487.5 " fill-opacity="1" fill-rule="nonzero"/><path fill="#baa6e2" d="M 0 568.5 L 810 568.5 L 810 609 L 0 609 Z M 0 568.5 " fill-opacity="1" fill-rule="nonzero"/><path fill="#baa6e2" d="M 0 649.5 L 810 649.5 L 810 690 L 0 690 Z M 0 649.5 " fill-opacity="1" fill-rule="nonzero"/><path fill="#baa6e2" d="M 0 730.5 L 810 730.5 L 810 771 L 0 771 Z M 0 730.5 " fill-opacity="1" fill-rule="nonzero"/></g></g></g><g mask="url(#8fa42d8163)"><g transform="matrix(1, 0, 0, 1, 40, 630)"><g clip-path="url(#79e4ce7a90)"><g clip-path="url(#6973299cd0)"><path fill="#baa6e2" d="M 0.5 810 L 0.5 0 L 41 0 L 41 810 Z M 0.5 810 " fill-opacity="1" fill-rule="nonzero"/></g><path fill="#baa6e2" d="M 81.5 810 L 81.5 0 L 122 0 L 122 810 Z M 81.5 810 " fill-opacity="1" fill-rule="nonzero"/><path fill="#baa6e2" d="M 162.5 810 L 162.5 0 L 203 0 L 203 810 Z M 162.5 810 " fill-opacity="1" fill-rule="nonzero"/><path fill="#baa6e2" d="M 243.5 810 L 243.5 0 L 284 0 L 284 810 Z M 243.5 810 " fill-opacity="1" fill-rule="nonzero"/><path fill="#baa6e2" d="M 324.5 810 L 324.5 0 L 365 0 L 365 810 Z M 324.5 810 " fill-opacity="1" fill-rule="nonzero"/><path fill="#baa6e2" d="M 405.5 810 L 405.5 0 L 446 0 L 446 810 Z M 405.5 810 " fill-opacity="1" fill-rule="nonzero"/><path fill="#baa6e2" d="M 486.5 810 L 486.5 0 L 527 0 L 527 810 Z M 486.5 810 " fill-opacity="1" fill-rule="nonzero"/><path fill="#baa6e2" d="M 567.5 810 L 567.5 0 L 608 0 L 608 810 Z M 567.5 810 " fill-opacity="1" fill-rule="nonzero"/><path fill="#baa6e2" d="M 648.5 810 L 648.5 0 L 689 0 L 689 810 Z M 648.5 810 " fill-opacity="1" fill-rule="nonzero"/><path fill="#baa6e2" d="M 729.5 810 L 729.5 0 L 770 0 L 770 810 Z M 729.5 810 " fill-opacity="1" fill-rule="nonzero"/></g></g></g><path fill="#ffffff" d="M 0 -180 L 810 -180 L 810 630 L 0 630 Z M 0 -180 " fill-opacity="1" fill-rule="nonzero"/><g mask="url(#f8c6c78f0a)"><g transform="matrix(1, 0, 0, 1, 0, -0.000000000000101068)"><g clip-path="url(#1a19247616)"><path fill="#baa6e2" d="M 0 22.5 L 810 22.5 L 810 63 L 0 63 Z M 0 22.5 " fill-opacity="1" fill-rule="nonzero"/><path fill="#baa6e2" d="M 0 103.5 L 810 103.5 L 810 144 L 0 144 Z M 0 103.5 " fill-opacity="1" fill-rule="nonzero"/><path fill="#baa6e2" d="M 0 184.5 L 810 184.5 L 810 225 L 0 225 Z M 0 184.5 " fill-opacity="1" fill-rule="nonzero"/><path fill="#baa6e2" d="M 0 265.5 L 810 265.5 L 810 306 L 0 306 Z M 0 265.5 " fill-opacity="1" fill-rule="nonzero"/><path fill="#baa6e2" d="M 0 346.5 L 810 346.5 L 810 387 L 0 387 Z M 0 346.5 " fill-opacity="1" fill-rule="nonzero"/><path fill="#baa6e2" d="M 0 427.5 L 810 427.5 L 810 468 L 0 468 Z M 0 427.5 " fill-opacity="1" fill-rule="nonzero"/><path fill="#baa6e2" d="M 0 508.5 L 810 508.5 L 810 549 L 0 549 Z M 0 508.5 " fill-opacity="1" fill-rule="nonzero"/><path fill="#baa6e2" d="M 0 589.5 L 810 589.5 L 810 630 L 0 630 Z M 0 589.5 " fill-opacity="1" fill-rule="nonzero"/></g></g></g><g mask="url(#57ec8fd101)"><g transform="matrix(1, 0, 0, 1, 40, -0.000000000000101068)"><g clip-path="url(#08c6356ea1)"><g clip-path="url(#ba962e835a)"><path fill="#baa6e2" d="M 0.5 630 L 0.5 -180 L 41 -180 L 41 630 Z M 0.5 630 " fill-opacity="1" fill-rule="nonzero"/></g><g clip-path="url(#a77dd94b1d)"><path fill="#baa6e2" d="M 81.5 630 L 81.5 -180 L 122 -180 L 122 630 Z M 81.5 630 " fill-opacity="1" fill-rule="nonzero"/></g><g clip-path="url(#958fc55427)"><path fill="#baa6e2" d="M 162.5 630 L 162.5 -180 L 203 -180 L 203 630 Z M 162.5 630 " fill-opacity="1" fill-rule="nonzero"/></g><g clip-path="url(#b1a89840af)"><path fill="#baa6e2" d="M 243.5 630 L 243.5 -180 L 284 -180 L 284 630 Z M 243.5 630 " fill-opacity="1" fill-rule="nonzero"/></g><g clip-path="url(#097b77ec65)"><path fill="#baa6e2" d="M 324.5 630 L 324.5 -180 L 365 -180 L 365 630 Z M 324.5 630 " fill-opacity="1" fill-rule="nonzero"/></g><g clip-path="url(#06aaac7c99)"><path fill="#baa6e2" d="M 405.5 630 L 405.5 -180 L 446 -180 L 446 630 Z M 405.5 630 " fill-opacity="1" fill-rule="nonzero"/></g><g clip-path="url(#a76c4e5e2b)"><path fill="#baa6e2" d="M 486.5 630 L 486.5 -180 L 527 -180 L 527 630 Z M 486.5 630 " fill-opacity="1" fill-rule="nonzero"/></g><g clip-path="url(#41304e40d0)"><path fill="#baa6e2" d="M 567.5 630 L 567.5 -180 L 608 -180 L 608 630 Z M 567.5 630 " fill-opacity="1" fill-rule="nonzero"/></g><g clip-path="url(#1d28d1515d)"><path fill="#baa6e2" d="M 648.5 630 L 648.5 -180 L 689 -180 L 689 630 Z M 648.5 630 " fill-opacity="1" fill-rule="nonzero"/></g><g clip-path="url(#d5a17b11c5)"><path fill="#baa6e2" d="M 729.5 630 L 729.5 -180 L 770 -180 L 770 630 Z M 729.5 630 " fill-opacity="1" fill-rule="nonzero"/></g></g></g></g></svg>